<svg xmlns="http://www.w3.org/2000/svg" xml:space="preserve" width="166.562" height="166.562" viewBox="0 0 44.069 44.069"><path fill="#00006f" d="M2.307 43.852c-.133-.133-.241-.593-.241-1.022 0-.596-.225-.806-.947-.89-.681-.078-.947-.302-.947-.797 0-.631.23-.689 2.754-.689s2.755.058 2.755.689c0 .491-.265.72-.926.795-.715.083-.95.318-1.033 1.03-.103.886-.91 1.39-1.415.884m6.025-.196c-.227-.227-.413-1.225-.413-2.217 0-.993-.155-1.9-.345-2.018-.433-.267-.462-8.949-.032-9.748.171-.32 1.004-1.098 1.85-1.731 1.455-1.087 1.573-1.304 2.14-3.93.983-4.548.599-4.387 10.503-4.387 9.887 0 9.476-.171 10.45 4.341.572 2.645.683 2.848 2.167 3.957.86.643 1.704 1.43 1.876 1.75.43.8.4 9.48-.033 9.748-.19.118-.344 1.025-.344 2.018s-.186 1.99-.413 2.217c-.238.238-1.378.413-2.686.413-2.635 0-3.099-.319-3.099-2.134v-1.308H14.116v1.308c0 1.815-.463 2.134-3.099 2.134-1.308 0-2.447-.175-2.685-.413m4.063-2.169c0-.774-.138-.86-1.378-.86s-1.377.086-1.377.86c0 .775.138.861 1.377.861 1.24 0 1.378-.086 1.378-.86m22.034 0c0-.774-.137-.86-1.377-.86s-1.377.086-1.377.86c0 .775.138.861 1.377.861 1.24 0 1.377-.086 1.377-.86m.623-3.357c.11-.565-.693-.602-12.992-.602-10.694 0-13.108.084-13.108.459 0 .252.105.564.233.693.129.128 5.975.193 12.993.143 11.836-.084 12.767-.134 12.874-.693m.066-4.879v-2.555l-1.636-1.402-1.635-1.402H12.222l-1.635 1.402-1.635 1.402v5.11h26.166zm-24.1 1.766c-1.917-.97-2.023-3.367-.202-4.56 1.69-1.107 4.003.197 3.978 2.241q-.019 1.521-1.602 2.364c-.936.498-1.108.494-2.175-.045m1.868-2.081c.28-.45.245-.671-.147-.921-.284-.181-.638-.332-.786-.335-.41-.008-.69.96-.456 1.573.249.648.877.505 1.39-.317m3.898 2.154c-.463-.27-.602-.808-.602-2.33 0-1.09.186-2.166.413-2.393.577-.577 10.303-.577 10.88 0 .227.227.413 1.306.413 2.398 0 1.61-.126 2.052-.666 2.34-.858.46-9.645.447-10.438-.015m9.382-2.382v-1.033h-8.263v2.066h8.263zm4.648 2.347c-3.084-1.806-1.026-6.11 2.269-4.745 1.65.684 2 3.207.606 4.364-.761.631-2.136.813-2.875.38m1.84-2.154c.156-.804-.376-1.304-1.094-1.028-.676.259-.741.873-.156 1.459.538.538 1.1.344 1.25-.431m-16.609-7.22c.103-.267-.071-.984-.386-1.594-.316-.61-.502-1.483-.414-1.942.131-.687.034-.817-.55-.73-.565.082-.83.578-1.295 2.427l-.585 2.324h1.522c.992 0 1.587-.169 1.708-.485m3.099 0c.102-.267-.072-.984-.387-1.594s-.503-1.475-.417-1.924c.118-.614.003-.817-.461-.817-.87 0-1.162 1.215-.514 2.139.296.423.538 1.199.538 1.725 0 1.022.899 1.363 1.241.47m11.836-.117c-.004-.332-.208-1.377-.453-2.324l-.446-1.722-4.857-.095c-4.612-.09-4.87-.06-5.079.599-.128.403.005 1.016.318 1.463.297.423.539 1.199.539 1.725v.956h4.992c4.528 0 4.992-.056 4.986-.602m9.544 18.288c-.133-.133-.242-.593-.242-1.022 0-.596-.224-.806-.947-.89-.68-.078-.946-.302-.946-.797 0-.631.23-.689 2.754-.689s2.754.058 2.754.689c0 .491-.265.72-.926.795-.714.083-.95.318-1.032 1.03-.103.886-.91 1.39-1.415.884M0 38.98c0-.674 4.948-3.349 5.53-2.99.894.553.207 1.447-1.921 2.496C1.055 39.746 0 39.89 0 38.98m38.217-.079c0-.924 4.938-3.459 5.55-2.848.677.677.065 1.41-2.082 2.494-2.455 1.239-3.468 1.343-3.468.354M.13 36.34c-.295-.768.094-1.15 2.294-2.262 2.41-1.216 3.428-1.317 3.428-.34 0 .501-.64 1.006-2.401 1.893C.77 36.98.407 37.058.13 36.34m38.216 0c-.294-.768.094-1.15 2.295-2.262 2.409-1.216 3.427-1.317 3.427-.34 0 .501-.64 1.006-2.401 1.893-2.68 1.35-3.045 1.428-3.32.71M0 33.05c0-.924 4.939-3.459 5.55-2.848.677.677.066 1.41-2.081 2.494C1.014 33.934 0 34.038 0 33.049m38.217 0c0-.924 4.938-3.459 5.55-2.848.677.677.065 1.41-2.082 2.494-2.455 1.239-3.468 1.343-3.468.354M.13 30.486c-.295-.768.094-1.15 2.294-2.262 2.41-1.216 3.428-1.317 3.428-.34 0 .501-.64 1.006-2.401 1.893-2.681 1.35-3.045 1.428-3.321.71m38.216 0c-.294-.768.094-1.15 2.295-2.262 2.409-1.216 3.427-1.317 3.427-.34 0 .501-.64 1.006-2.401 1.893-2.68 1.35-3.045 1.428-3.32.71M0 27.196c0-.924 4.939-3.459 5.55-2.848.677.677.066 1.41-2.081 2.494C1.014 28.08 0 28.185 0 27.196m38.216 0c0-.924 4.94-3.459 5.55-2.848.678.677.066 1.41-2.081 2.494-2.455 1.239-3.469 1.343-3.469.354M.131 24.633c-.295-.768.094-1.15 2.294-2.262 2.41-1.216 3.428-1.317 3.428-.34 0 .501-.64 1.006-2.401 1.893-2.681 1.35-3.045 1.428-3.321.71m38.216 0c-.294-.768.094-1.15 2.295-2.262 2.409-1.216 3.427-1.317 3.427-.34 0 .501-.64 1.006-2.401 1.893-2.681 1.35-3.045 1.428-3.32.71M0 21.343c0-.924 4.939-3.459 5.55-2.848.677.678.066 1.41-2.081 2.494C1.014 22.228 0 22.332 0 21.343m38.216 0c0-.924 4.94-3.459 5.55-2.848.678.678.066 1.41-2.081 2.494-2.455 1.239-3.469 1.343-3.469.354M.131 18.78c-.295-.768.094-1.15 2.294-2.262 2.41-1.216 3.428-1.317 3.428-.34 0 .501-.64 1.006-2.401 1.893-2.681 1.35-3.045 1.428-3.321.71m38.315.27c-.678-.677-.063-1.425 2.015-2.45 2.553-1.26 3.608-1.403 3.608-.494 0 .42-.815 1.017-2.587 1.894-2.873 1.421-2.719 1.368-3.036 1.05m-25.86-1.912c-.692-.988-.679-1.21.2-3.508.903-2.357 1.738-2.564 2.558-.633.911 2.144 1.009 3.458.314 4.225-.836.925-2.395.882-3.072-.084m1.874-1.493c0-.295-.155-.441-.344-.324-.19.117-.344.359-.344.537s.155.324.344.324c.19 0 .344-.242.344-.537m6.079 1.629c-.755-.835-.719-1.675.164-3.8.484-1.165.938-1.768 1.332-1.768.649 0 2.065 2.946 2.065 4.296 0 1.67-2.419 2.534-3.561 1.272m1.84-1.609c0-.284-.155-.516-.344-.516-.19 0-.345.232-.345.516s.155.517.345.517.344-.233.344-.517m5.734 1.609c-.755-.835-.718-1.675.165-3.8.484-1.165.938-1.768 1.331-1.768.65 0 2.066 2.946 2.066 4.296 0 1.67-2.42 2.534-3.562 1.272m1.84-1.609c0-.284-.154-.516-.344-.516s-.344.232-.344.516.155.517.344.517c.19 0 .344-.233.344-.517M.136 14.32c-.29-.755.135-1.236 1.09-1.236h.84V7.23c0-5.394.054-5.907.688-6.541C3.426.017 3.902 0 22.034 0s18.61.017 19.281.689c.634.634.689 1.147.689 6.518v5.83l.946.11c.681.078.947.302.947.797 0 .631-.23.688-2.754.688s-2.754-.057-2.754-.688c0-.495.265-.72.946-.798.945-.108.947-.116.947-2.84V7.574H39.25c-.865 0-1.033.137-1.033.84 0 1.034-.55 1.425-1.22.87-.565-.47-.708-4.637-.186-5.46.504-.798 1.406-.165 1.406.985 0 .93.113 1.044 1.033 1.044h1.033V1.721H3.787v4.132H4.82c.914 0 1.033-.117 1.033-1.013 0-1.188.514-1.626 1.22-1.04.566.47.708 4.636.187 5.46-.46.725-1.407.177-1.407-.814 0-.739-.157-.872-1.033-.872H3.787v2.732c0 2.724.003 2.732.947 2.84.681.079.947.303.947.798 0 .62-.263.698-2.674.79-2.12.079-2.714-.007-2.87-.415m10.275-5.11c-.19-.236-.837-1.41-1.438-2.61-.863-1.721-1.007-2.282-.687-2.668.223-.268.54-.488.703-.488.418 0 2.717 4.654 2.717 5.5 0 .776-.76.932-1.295.267m1.795-2.01c-1.255-2.493-1.406-3.585-.496-3.585.63 0 3.224 4.844 2.96 5.53-.417 1.089-1.279.408-2.464-1.945m4.057 2.01c-.19-.237-.838-1.411-1.438-2.61-.863-1.722-1.007-2.283-.687-2.669.223-.268.54-.488.703-.488.418 0 2.717 4.654 2.717 5.5 0 .776-.76.932-1.295.267M18.06 7.2c-1.255-2.493-1.406-3.585-.496-3.585.63 0 3.224 4.844 2.96 5.53-.417 1.089-1.279.408-2.464-1.945m4.057 2.01c-.19-.237-.838-1.411-1.438-2.61-.863-1.722-1.007-2.283-.687-2.669.223-.268.54-.488.704-.488.43 0 2.991 5.255 2.81 5.767a.69.69 0 0 1-.597.43c-.245 0-.601-.193-.792-.43m1.796-2.01c-1.255-2.493-1.406-3.585-.496-3.585.63 0 3.224 4.844 2.96 5.53-.417 1.089-1.279.408-2.464-1.945m4.057 2.01c-.19-.237-.838-1.411-1.438-2.61-.863-1.722-1.007-2.283-.687-2.669.223-.268.54-.488.704-.488.433 0 3.12 5.477 2.879 5.868-.286.462-1.047.41-1.458-.101m1.816-1.971c-.666-1.321-1.21-2.629-1.21-2.906 0-.798.677-1.008 1.333-.414.892.808 2.584 4.544 2.342 5.174-.436 1.135-1.28.5-2.465-1.854m3.085-.37c-1.09-2.239-1.26-2.83-.875-3.068.794-.49 1.214-.092 2.365 2.241 1.257 2.55 1.397 3.598.481 3.598-.433 0-1.025-.833-1.97-2.772"/></svg>