<svg xmlns="http://www.w3.org/2000/svg" xml:space="preserve" width="86.344" height="83.492" fill="#00006f" viewBox="0 0 22.845 22.091"><path d="M16.224 3.939h1.865l.005 1.22H16.23zm-1.268-.662h4.411a.47.47 0 0 0 .466-.515l-.24-2.34a.47.47 0 0 0-.465-.42h-3.941a.466.466 0 0 0-.467.422l-.23 2.339h-.001a.47.47 0 0 0 .466.514zm-1.972 13.994h8.358c.382 0 .69-.31.692-.691v-1.075a.693.693 0 0 0-.692-.691h-.618c-1.17.253-2.364.367-3.561.338a15 15 0 0 1-3.56-.338h-.619a.69.69 0 0 0-.691.691v1.075c0 .381.309.691.691.691m.053-3.12h.61q.048 0 .093.013.428.116.868.171L14.3 8.387a1.395 1.395 0 0 1 1.395-1.47h2.92a1.4 1.4 0 0 1 1.394 1.455l-.245 5.956v.001q.417-.056.82-.165a.3.3 0 0 1 .093-.014h.61l.499-5.805a2.32 2.32 0 0 0-2.315-2.524h-4.618a2.323 2.323 0 0 0-2.315 2.523zm2.66-6.572a.736.736 0 0 0-.736.773l.314 6.058c.57.05 1.216.078 1.888.078.69 0 1.355-.03 1.937-.082l.249-6.062a.73.73 0 0 0-.733-.765zm6.647 13.51H.5a.5.5 0 1 0 0 1.002h21.843a.501.501 0 1 0 0-1.002m-13.872-.661v-2.494h-.603v2.494zm-6.97-3.157H9.86c.382 0 .691-.31.691-.691v-1.075a.69.69 0 0 0-.691-.692h-.618a15 15 0 0 1-3.56.338 15 15 0 0 1-3.562-.339h-.618c-.382 0-.69.31-.692.692v1.075c0 .382.31.692.692.692m1.948 3.156v-2.493h-.603v2.494zm.025-17.15h4.412a.47.47 0 0 0 .466-.516L8.113.42A.47.47 0 0 0 7.647 0H3.705a.467.467 0 0 0-.465.423l-.23 2.339h-.001a.47.47 0 0 0 .119.361.47.47 0 0 0 .347.153zm.74 4.302a.74.74 0 0 0-.534.228.74.74 0 0 0-.2.545l.313 6.058c.57.05 1.217.078 1.888.078.69 0 1.356-.03 1.937-.082l.248-6.062a.735.735 0 0 0-.735-.766zm-2.66 6.571h.612a.3.3 0 0 1 .092.014q.427.116.868.171L2.82 8.387a1.4 1.4 0 0 1 1.396-1.47h2.918a1.4 1.4 0 0 1 1.395 1.455l-.244 5.956v.001a6 6 0 0 0 .82-.165.4.4 0 0 1 .092-.014h.61l.5-5.805a2.323 2.323 0 0 0-2.315-2.524H3.373a2.326 2.326 0 0 0-2.315 2.523zm18.412 6.277v-2.493h-.602v2.494zM4.747 5.159h1.865l-.005-1.221H4.743zm10.199 15.268-.001-2.493h-.6v2.494z"/></svg>